<?xml version="1.0" encoding="UTF-8" standalone="no"?>
<svg
   xmlns:dc="http://purl.org/dc/elements/1.1/"
   xmlns:cc="http://creativecommons.org/ns#"
   xmlns:rdf="http://www.w3.org/1999/02/22-rdf-syntax-ns#"
   xmlns:svg="http://www.w3.org/2000/svg"
   xmlns="http://www.w3.org/2000/svg"
   xmlns:sodipodi="http://sodipodi.sourceforge.net/DTD/sodipodi-0.dtd"
   xmlns:inkscape="http://www.inkscape.org/namespaces/inkscape"
   id="Calque_1"
   data-name="Calque 1"
   viewBox="0 0 323.17 94.07"
   version="1.1"
   sodipodi:docname="logo-demarches-loire-atlantique.svg"
   inkscape:version="1.0.2 (e86c870879, 2021-01-15, custom)">
  <metadata
     id="metadata1025">
    <rdf:RDF>
      <cc:Work
         rdf:about="">
        <dc:format>image/svg+xml</dc:format>
        <dc:type
           rdf:resource="http://purl.org/dc/dcmitype/StillImage" />
        <dc:title></dc:title>
      </cc:Work>
    </rdf:RDF>
  </metadata>
  <sodipodi:namedview
     pagecolor="#ffffff"
     bordercolor="#666666"
     borderopacity="1"
     objecttolerance="10"
     gridtolerance="10"
     guidetolerance="10"
     inkscape:pageopacity="0"
     inkscape:pageshadow="2"
     inkscape:window-width="1618"
     inkscape:window-height="988"
     id="namedview1023"
     showgrid="false"
     inkscape:zoom="2.5806851"
     inkscape:cx="207.64402"
     inkscape:cy="47.035"
     inkscape:window-x="0"
     inkscape:window-y="0"
     inkscape:window-maximized="0"
     inkscape:current-layer="Calque_1" />
  <defs
     id="defs932">
    <rect
       x="134.46042"
       y="-64.324005"
       width="156.54758"
       height="40.686871"
       id="rect1029" />
    <style
       id="style930">.cls-1{fill:#1d1d1b;}.cls-2{fill:#0e415f;}.cls-3{fill:#b7c905;}.cls-4{fill:#fff;}</style>
  </defs>
  <path
     class="cls-2"
     d="M219.83,397.6a4.94,4.94,0,0,0-2.48-.68,4.64,4.64,0,0,0-4.66,4.66,1.18,1.18,0,0,0,0,.59Z"
     transform="translate(-129.78 -377.17)"
     id="path966" />
  <path
     class="cls-2"
     d="M295.6,425.9a4,4,0,0,0-2.42-.68,4.28,4.28,0,0,0-3.31,1.36,4.44,4.44,0,0,0-1.35,3.3v.59Z"
     transform="translate(-129.78 -377.17)"
     id="path968" />
  <path
     class="cls-2"
     d="M182.16,406.19a4.71,4.71,0,0,0,3.3-1.35,4.21,4.21,0,0,0,1.36-3.31,4.69,4.69,0,1,0-8.16,3.31,4.87,4.87,0,0,0,3.55,1.5Z"
     transform="translate(-129.78 -377.17)"
     id="path970" />
  <path
     class="cls-2"
     d="M257.16,425.22a4.7,4.7,0,0,0-3.3,1.36,4.6,4.6,0,0,0-.05,6.51l.05.05a4.6,4.6,0,0,0,6.5,0l.05,0a4.66,4.66,0,0,0,1.36-3.31,4.74,4.74,0,0,0-1.36-3.3A4.56,4.56,0,0,0,257.16,425.22Z"
     transform="translate(-129.78 -377.17)"
     id="path972" />
  <path
     class="cls-2"
     d="M204.44,434.49a4.65,4.65,0,1,0-3.3-8h0a4.66,4.66,0,0,0,0,6.56,4.61,4.61,0,0,0,3.25,1.36h.05Z"
     transform="translate(-129.78 -377.17)"
     id="path974" />
  <path
     class="cls-2"
     d="M261.77,446.1v-9.28A8.16,8.16,0,0,1,251,435.9a8.31,8.31,0,0,1-2.43-6,8.64,8.64,0,0,1,17.28,0V446h-.53c14.08.19,30.39.87,49.42,2.18V397.51c-69.27-26.75-153-25.44-185-5.78l26.51,79.51c4.41-2.67,8.69-5.19,13-7.47h0C190.07,452.46,211.72,445.71,261.77,446.1Zm25.29-22.33a8.49,8.49,0,0,1,6.12-2.58,8.62,8.62,0,0,1,4.8,1.46,9.22,9.22,0,0,1,3.2,3.88v.34l-10.58,6.95a4.88,4.88,0,0,0,2.43.67,4.34,4.34,0,0,0,3.35-1.4,5,5,0,0,0,.87-1.36h4.18a8.35,8.35,0,0,1-2.24,4.12,7.92,7.92,0,0,1-6.11,2.67,8.55,8.55,0,0,1-6.12-2.47,8.15,8.15,0,0,1-2.52-6.07A8.62,8.62,0,0,1,287.06,423.77Zm-18.84-2.28h4v9.61a3.44,3.44,0,0,0,3.34,3.39,3.33,3.33,0,0,0,2.38-1,3.13,3.13,0,0,0,1-2.38v-9.57h4v9.62a7,7,0,0,1-2.23,5.09,7.1,7.1,0,0,1-10,.29l-.29-.29a6.92,6.92,0,0,1-2.19-5.09Zm-81.4,3.93h-2.67v12.72h-3.88V425.42h-2.58v-3.93h2.58v-5.34h3.93v5.38h2.67Zm6.7,12.72h-4V416h3.93ZM242.25,416h3.94v3.93h-4Zm0,5.34h3.94V438h-4Zm-10.77,0h2.57V416h3.79v5.39h2.57v3.93h-2.57V438h-3.93V425.47h-2.58Zm-1.12,7.09V438h-4.12v-9.47a3.4,3.4,0,0,0-6.8,0h0v9.61h-3.93v-9.61a7.46,7.46,0,0,1,7.33-7.33,6.92,6.92,0,0,1,5.09,2.19,7.16,7.16,0,0,1,2.24,5.14Zm-18.78-33.11a8.11,8.11,0,0,1,6.06-2.52,8.66,8.66,0,0,1,8,5.34l.15.34-10.87,6.89a4.8,4.8,0,0,0,2.47.68,4.2,4.2,0,0,0,3.25-1.41,4.8,4.8,0,0,0,.93-1.41h4.17a8.5,8.5,0,0,1-2.28,4.18,8,8,0,0,1-6.12,2.57,8.45,8.45,0,0,1-6.11-2.47,8.23,8.23,0,0,1-2.53-6.07,8.33,8.33,0,0,1,2.53-6Zm-11.36,4.95a6.78,6.78,0,0,1,2.28-5.19,7.43,7.43,0,0,1,5.39-2.14h.43v3.93h-.63a3.7,3.7,0,0,0-2.67,1,3.29,3.29,0,0,0-1.06,2.42v9.61h-3.79v-9.61Zm4.22,21a8.59,8.59,0,0,1,6.12,2.58,8.19,8.19,0,0,1,2.52,6.06v8.3h-3.93v-1.36a8.27,8.27,0,0,1-10.73-.92,8.66,8.66,0,0,1,.24-12.23,8.82,8.82,0,0,1,5.93-2.43ZM193.18,387.6h3.93v3.94h-3.93Zm0,5.59h3.93v16.69h-3.93ZM176,395.47a8.46,8.46,0,0,1,6.12-2.53,8.57,8.57,0,1,1-.1,17.14,8.57,8.57,0,0,1-6-14.61Zm-16.11-7.77h4.12v18.06h9.08v4.12H160Zm3,50.44h-4.27L166.53,416h4.61L179,438.14h-4.41l-1.36-3.69h-8.84Z"
     transform="translate(-129.78 -377.17)"
     id="path976" />
  <polygon
     class="cls-2"
     points="35.97 53.58 42.09 53.58 39.03 45.18 35.97 53.58"
     id="polygon978" />
  <path
     class="cls-3"
     d="M169.2,463.77H314.68V448.38C230.6,443.23,201,446.87,169.2,463.77Z"
     transform="translate(-129.78 -377.17)"
     id="path980" />
  <path
     class="cls-3"
     d="M315,448.38"
     transform="translate(-129.78 -377.17)"
     id="path982" />
  <path
     class="cls-3"
     d="M314.68,448.38h0c-19.08-1.31-35.34-2-49.42-2.19h-3.44c-50-.53-71.75,6.22-92.67,17.58h0C201,446.87,230.6,443.23,314.68,448.38Z"
     transform="translate(-129.78 -377.17)"
     id="path984" />
  <path
     class="cls-4"
     d="M182.16,410.13a8.6,8.6,0,1,0,0-17.19A8.6,8.6,0,0,0,176,407.6h0A8.34,8.34,0,0,0,182.16,410.13Zm-3.3-11.85a4.67,4.67,0,0,1,6.55,0,4.58,4.58,0,0,1,1.36,3.25,4.42,4.42,0,0,1-1.36,3.31,4.65,4.65,0,0,1-7-6.07A4.53,4.53,0,0,1,178.86,398.28Z"
     transform="translate(-129.78 -377.17)"
     id="path986" />
  <rect
     class="cls-4"
     x="63.4"
     y="16.01"
     width="3.93"
     height="16.7"
     id="rect988" />
  <path
     class="cls-4"
     d="M204.15,400.27a3,3,0,0,1,1.07-2.42,3.7,3.7,0,0,1,2.67-1h.43v-3.93h-.63a7.51,7.51,0,0,0-5.39,2.14,6.81,6.81,0,0,0-2.28,5.19v9.61H204Z"
     transform="translate(-129.78 -377.17)"
     id="path990" />
  <polygon
     class="cls-4"
     points="54.37 38.83 50.44 38.83 50.44 44.31 47.86 44.31 47.86 48.24 50.44 48.24 50.44 60.96 54.37 60.96 54.37 48.24 56.94 48.24 56.94 44.31 54.37 44.31 54.37 38.83"
     id="polygon992" />
  <rect
     class="cls-4"
     x="59.71"
     y="38.78"
     width="3.93"
     height="22.18"
     id="rect994" />
  <path
     class="cls-4"
     d="M198.28,435.85a8.16,8.16,0,0,0,10.72.93v1.36h4.08v-8.31a8.19,8.19,0,0,0-2.52-6.06,8.62,8.62,0,0,0-12.28,12.08Zm2.91-9.27a4.62,4.62,0,0,1,6.55,0h0a4.42,4.42,0,0,1,1.36,3.3,4.66,4.66,0,0,1-4.66,4.66,4.67,4.67,0,0,1-3.25-8Z"
     transform="translate(-129.78 -377.17)"
     id="path996" />
  <path
     class="cls-4"
     d="M217.69,423.43a7,7,0,0,0-2.18,5.14v9.61h3.93v-9.61a3.4,3.4,0,0,1,6.8,0h0v9.61h3.93v-9.61a7.16,7.16,0,0,0-2.24-5.14,6.92,6.92,0,0,0-5.09-2.19A7.13,7.13,0,0,0,217.69,423.43Z"
     transform="translate(-129.78 -377.17)"
     id="path998" />
  <polygon
     class="cls-4"
     points="104.07 61.01 108.05 61.01 108.05 48.24 110.63 48.24 110.63 44.31 108.05 44.31 108.05 38.83 104.07 38.83 104.07 44.31 101.55 44.31 101.55 48.24 104.07 48.24 104.07 61.01"
     id="polygon1000" />
  <rect
     class="cls-4"
     x="112.37"
     y="44.31"
     width="3.93"
     height="16.7"
     id="rect1002" />
  <rect
     class="cls-4"
     x="112.37"
     y="38.83"
     width="3.93"
     height="3.93"
     id="rect1004" />
  <path
     class="cls-4"
     d="M265.75,429.83a8.64,8.64,0,1,0-14.85,6,8.16,8.16,0,0,0,10.72.93v9.27h4.08V429.83Zm-5.34,3.31a4.61,4.61,0,0,1-6.51,0l0,0a4.6,4.6,0,0,1-.05-6.51l.05-.05a4.42,4.42,0,0,1,3.3-1.36,4.74,4.74,0,0,1,3.3,1.36,4.45,4.45,0,0,1,1.36,3.3,4.9,4.9,0,0,1-1.41,3.26Z"
     transform="translate(-129.78 -377.17)"
     id="path1006" />
  <path
     class="cls-4"
     d="M261.77,446.1"
     transform="translate(-129.78 -377.17)"
     id="path1008" />
  <path
     class="cls-4"
     d="M275.51,438.43a7.31,7.31,0,0,0,5.14-2.19,7,7,0,0,0,2.23-5.09v-9.62h-4v9.62a3.37,3.37,0,0,1-1,2.37,3.43,3.43,0,0,1-2.38,1,3.49,3.49,0,0,1-3.3-3.39v-9.62h-4.07v9.62a6.91,6.91,0,0,0,2.18,5.09A7.12,7.12,0,0,0,275.51,438.43Z"
     transform="translate(-129.78 -377.17)"
     id="path1010" />
  <path
     class="cls-4"
     d="M217.4,410.13a8.19,8.19,0,0,0,6.12-2.58,9.09,9.09,0,0,0,2.28-4.17h-4.18a4.4,4.4,0,0,1-.92,1.41,4.19,4.19,0,0,1-3.25,1.4,5,5,0,0,1-2.48-.67l10.59-6.9-.15-.34a9,9,0,0,0-3.2-3.88,8.39,8.39,0,0,0-4.81-1.46,8.15,8.15,0,0,0-6.07,2.53,8.41,8.41,0,0,0-2.52,6.11,8.54,8.54,0,0,0,8.59,8.55Zm-3.35-11.85a4.45,4.45,0,0,1,3.3-1.36,4.94,4.94,0,0,1,2.48.68l-7,4.57a1.18,1.18,0,0,1,0-.59A4.37,4.37,0,0,1,214.05,398.28Z"
     transform="translate(-129.78 -377.17)"
     id="path1012" />
  <path
     class="cls-4"
     d="M293.18,438.43a8,8,0,0,0,6.11-2.67,8.63,8.63,0,0,0,2.23-4.13h-4.17a6.31,6.31,0,0,1-.87,1.36,4.25,4.25,0,0,1-3.3,1.41,4.75,4.75,0,0,1-2.43-.68l10.58-6.8v-.34a9.29,9.29,0,0,0-3.2-3.88,8.39,8.39,0,0,0-4.81-1.46A8.66,8.66,0,0,0,287.25,436,8.63,8.63,0,0,0,293.18,438.43Zm-3.31-11.85a4.21,4.21,0,0,1,3.31-1.36,4.75,4.75,0,0,1,2.42.68l-7,4.57v-.59A4.45,4.45,0,0,1,289.87,426.58Z"
     transform="translate(-129.78 -377.17)"
     id="path1014" />
  <polygon
     class="cls-4"
     points="43.45 28.58 34.32 28.58 34.32 10.53 30.24 10.53 30.24 32.71 43.45 32.71 43.45 28.58"
     id="polygon1016" />
  <path
     class="cls-4"
     d="M174.59,438.14H179L171.14,416h-4.61l-7.86,22.19H163l1.36-3.69h8.84Zm-8.84-7.38,3.06-8.4,3.06,8.4Z"
     transform="translate(-129.78 -377.17)"
     id="path1018" />
  <rect
     class="cls-4"
     x="63.4"
     y="10.43"
     width="3.93"
     height="3.93"
     id="rect1020" />
  <text
     xml:space="preserve"
     id="text1027"
     style="fill:black;fill-opacity:1;line-height:1.25;stroke:none;font-family:sans-serif;font-style:normal;font-weight:normal;font-size:40px;white-space:pre;shape-inside:url(#rect1029);" />
  <g
     aria-label="Démarches
internes"
     id="text1035"
     style="font-style:normal;font-weight:normal;font-size:24.0434px;line-height:1.25;font-family:sans-serif;fill:#000000;fill-opacity:1;stroke:none;stroke-width:0.601085">
    <path
       d="M 193.60809,44.538757 V 27.445403 h 4.76642 q 5.13035,0 7.66618,2.183629 2.53583,2.171889 2.53583,6.257389 0,4.238118 -2.48887,6.445227 -2.47713,2.207109 -7.2318,2.207109 z m 2.98195,-2.559307 h 2.41842 q 3.09935,0 4.75468,-1.549672 1.65533,-1.549672 1.65533,-4.555097 0,-2.852806 -1.67881,-4.355519 -1.66707,-1.514452 -5.09513,-1.514452 h -2.05449 z"
       style="font-style:normal;font-variant:normal;font-weight:bold;font-stretch:normal;font-family:Muli;-inkscape-font-specification:'Muli Bold';stroke-width:0.601085"
       id="path1039" />
    <path
       d="m 214.19995,37.072155 h 5.98737 q -0.21132,-1.279654 -0.95094,-1.960571 -0.73961,-0.680916 -1.80795,-0.680916 -1.25617,0 -2.10145,0.704396 -0.84527,0.704397 -1.12703,1.937091 z m 3.4398,7.736621 q -3.04064,0 -4.80164,-1.737511 -1.74925,-1.737512 -1.74925,-4.543358 0,-1.267913 0.42264,-2.406688 0.42264,-1.138774 1.18574,-2.01927 0.77483,-0.880495 1.94883,-1.397053 1.18573,-0.516557 2.618,-0.516557 1.43228,0 2.50061,0.493078 1.06833,0.493077 1.69055,1.385313 0.62222,0.880495 0.91572,1.98405 0.30524,1.103554 0.30524,2.441908 0,0.340458 -0.0587,0.516557 h -8.45276 q 0.0704,1.760991 1.06833,2.606267 1.00964,0.845276 2.67671,0.845276 1.94883,0 3.80374,-1.291394 l 0.78658,2.11319 q -1.13878,0.786576 -2.30103,1.162254 -1.15052,0.363938 -2.55931,0.363938 z m -1.15051,-13.95879 3.09934,-3.404583 h 3.7333 l -4.15594,3.404583 z"
       style="font-style:normal;font-variant:normal;font-weight:bold;font-stretch:normal;font-family:Muli;-inkscape-font-specification:'Muli Bold';stroke-width:0.601085"
       id="path1041" />
    <path
       d="m 225.85771,44.538757 v -8.170999 q 0,-1.244434 -0.1174,-2.559307 l -0.10566,-1.314873 h 3.06412 v 1.573152 q 0.44612,-0.821796 1.36184,-1.350094 0.92745,-0.528297 2.00753,-0.528297 1.16225,0 2.12493,0.563517 0.96267,0.563517 1.47923,1.667072 1.54967,-2.230589 3.9094,-2.230589 2.20711,0 3.31066,1.326613 1.1153,1.326614 1.1153,3.639382 v 7.384423 h -2.91151 v -7.208324 q 0,-0.481337 -0.0822,-0.927455 -0.0822,-0.446118 -0.27002,-0.880496 -0.1761,-0.446117 -0.54003,-0.704396 -0.3522,-0.270019 -0.84528,-0.270019 -1.29139,0 -2.12493,0.986155 -0.83354,0.986155 -0.83354,2.183629 v 6.820906 h -2.9115 v -7.360943 q 0,-0.352198 -0.047,-0.669177 -0.0352,-0.328718 -0.15262,-0.692656 -0.1174,-0.375678 -0.31698,-0.645697 -0.18784,-0.270018 -0.54004,-0.446118 -0.34045,-0.176099 -0.78657,-0.176099 -1.2327,0 -2.05449,0.810056 -0.8218,0.798316 -0.8218,1.866651 v 7.313983 z"
       style="font-style:normal;font-variant:normal;font-weight:bold;font-stretch:normal;font-family:Muli;-inkscape-font-specification:'Muli Bold';stroke-width:0.601085"
       id="path1043" />
    <path
       d="m 253.12959,42.460788 q 1.69055,0 2.45365,-1.068335 0.77483,-1.080075 0.77483,-2.876286 0,-1.84317 -0.82179,-2.899765 -0.81006,-1.068335 -2.46539,-1.068335 -1.62011,0 -2.48887,1.068335 -0.85701,1.068335 -0.85701,2.876286 0,1.807951 0.85701,2.888025 0.86876,1.080075 2.54757,1.080075 z m -0.36394,2.347988 q -1.46749,0 -2.62974,-0.528297 -1.16226,-0.528298 -1.86665,-1.408793 -0.7044,-0.880496 -1.06834,-1.960571 -0.36394,-1.080074 -0.36394,-2.265808 0,-1.256174 0.37568,-2.383208 0.37568,-1.138775 1.09182,-2.05449 0.72787,-0.927455 1.91361,-1.467493 1.18573,-0.551777 2.68844,-0.551777 2.18363,0 3.35763,1.584892 v -1.279653 h 2.8528 v 12.045179 h -2.92324 v -1.643591 q -1.31488,1.91361 -3.42807,1.91361 z"
       style="font-style:normal;font-variant:normal;font-weight:bold;font-stretch:normal;font-family:Muli;-inkscape-font-specification:'Muli Bold';stroke-width:0.601085"
       id="path1045" />
    <path
       d="m 262.6272,44.538757 v -8.992795 q 0,-0.704396 -0.0587,-1.467492 -0.0587,-0.763097 -0.11739,-1.173995 l -0.0587,-0.410897 h 3.09934 v 1.584892 q 0.71614,-0.939196 1.42053,-1.408793 0.71614,-0.481338 1.60838,-0.481338 0.52829,0 1.19747,0.176099 v 2.547567 q -0.78658,-0.258278 -1.45575,-0.258278 -1.20922,0 -1.97231,0.786576 -0.7631,0.786576 -0.7631,2.277548 v 6.820906 z"
       style="font-style:normal;font-variant:normal;font-weight:bold;font-stretch:normal;font-family:Muli;-inkscape-font-specification:'Muli Bold';stroke-width:0.601085"
       id="path1047" />
    <path
       d="m 277.44301,44.808776 q -1.46749,0 -2.68844,-0.516557 -1.20922,-0.516558 -1.98405,-1.397053 -0.77484,-0.880496 -1.19748,-2.00753 -0.42263,-1.138775 -0.42263,-2.383209 0,-1.784471 0.72787,-3.205003 0.73962,-1.432273 2.17189,-2.265809 1.44401,-0.845276 3.35762,-0.845276 2.84107,0 4.36726,1.620112 l -1.04485,1.878391 q -1.30314,-1.150515 -3.01717,-1.150515 -1.71403,0 -2.62974,1.080075 -0.91572,1.080075 -0.91572,2.899765 0,1.772732 0.97442,2.864546 0.97441,1.080075 2.66496,1.080075 0.2348,0 0.4696,-0.02348 0.2348,-0.02348 0.42264,-0.0587 0.18784,-0.03522 0.38742,-0.09392 0.21131,-0.07044 0.35219,-0.1174 0.14088,-0.0587 0.31698,-0.152619 0.1761,-0.09392 0.27002,-0.140879 0.10566,-0.0587 0.25828,-0.16436 0.15262,-0.105659 0.19958,-0.140879 0.0587,-0.03522 0.18784,-0.129139 0.14088,-0.10566 0.15262,-0.1174 l 0.88049,2.13667 q -1.00963,0.704396 -2.01927,1.033115 -1.00963,0.316978 -2.24233,0.316978 z"
       style="font-style:normal;font-variant:normal;font-weight:bold;font-stretch:normal;font-family:Muli;-inkscape-font-specification:'Muli Bold';stroke-width:0.601085"
       id="path1049" />
    <path
       d="M 284.14651,44.538757 V 27.433663 h 2.91151 v 6.621327 q 0.43438,-0.833536 1.52619,-1.350094 1.09182,-0.516557 2.07797,-0.516557 0.83354,0 1.51445,0.199579 0.69266,0.199579 1.16226,0.528297 0.4696,0.328719 0.82179,0.810056 0.3522,0.469598 0.55178,0.962676 0.19958,0.481337 0.31698,1.068334 0.12914,0.586997 0.16436,1.068335 0.047,0.481337 0.047,1.009635 v 6.703506 h -2.91151 v -6.797426 q 0,-1.702291 -0.52829,-2.441907 -0.5283,-0.751357 -1.5849,-0.751357 -1.19747,0 -2.18362,0.833536 -0.97442,0.821796 -0.97442,1.901871 v 7.255283 z"
       style="font-style:normal;font-variant:normal;font-weight:bold;font-stretch:normal;font-family:Muli;-inkscape-font-specification:'Muli Bold';stroke-width:0.601085"
       id="path1051" />
    <path
       d="m 301.14595,37.072155 h 5.98737 q -0.21132,-1.279654 -0.95093,-1.960571 -0.73962,-0.680916 -1.80796,-0.680916 -1.25617,0 -2.10145,0.704396 -0.84527,0.704397 -1.12703,1.937091 z m 3.4398,7.736621 q -3.04064,0 -4.80163,-1.737511 -1.74925,-1.737512 -1.74925,-4.543358 0,-1.267913 0.42263,-2.406688 0.42264,-1.138774 1.18574,-2.01927 0.77483,-0.880495 1.94883,-1.397053 1.18573,-0.516557 2.61801,-0.516557 1.43227,0 2.5006,0.493078 1.06834,0.493077 1.69055,1.385313 0.62222,0.880495 0.91572,1.98405 0.30524,1.103554 0.30524,2.441908 0,0.340458 -0.0587,0.516557 h -8.45276 q 0.0704,1.760991 1.06834,2.606267 1.00963,0.845276 2.6767,0.845276 1.94883,0 3.80374,-1.291394 l 0.78658,2.11319 q -1.13878,0.786576 -2.30103,1.162254 -1.15051,0.363938 -2.55931,0.363938 z"
       style="font-style:normal;font-variant:normal;font-weight:bold;font-stretch:normal;font-family:Muli;-inkscape-font-specification:'Muli Bold';stroke-width:0.601085"
       id="path1053" />
    <path
       d="m 317.19445,44.808776 q -1.58489,0 -2.9115,-0.446118 -1.32662,-0.446118 -2.11319,-1.068334 l 0.72787,-2.08971 q 0.73962,0.575257 1.86665,0.950935 1.12704,0.363938 2.17189,0.363938 0.97442,0 1.4675,-0.328718 0.50481,-0.328718 0.50481,-1.068335 v -0.211319 q 0,-0.375678 -0.29349,-0.633956 -0.2935,-0.270019 -1.3501,-0.610477 l -1.71403,-0.551778 q -0.65744,-0.211319 -1.09181,-0.387418 -0.43438,-0.187839 -0.89224,-0.469597 -0.44612,-0.281759 -0.7044,-0.610477 -0.24653,-0.340459 -0.41089,-0.821796 -0.15262,-0.493078 -0.15262,-1.127034 0,-0.915716 0.35219,-1.608372 0.36394,-0.692657 0.9979,-1.091815 0.63396,-0.399158 1.40879,-0.586997 0.77484,-0.199579 1.70229,-0.199579 1.15052,0 2.30103,0.293498 1.15052,0.293499 2.01927,0.868756 l -0.75135,1.99579 q -0.7044,-0.375678 -1.65534,-0.633957 -0.93919,-0.258278 -1.70229,-0.258278 -0.99789,0 -1.44401,0.246538 -0.44612,0.246539 -0.44612,0.810056 0,0.375678 0.14088,0.586997 0.14088,0.211319 0.587,0.434378 0.44612,0.223059 1.43227,0.551777 l 1.56141,0.528298 q 0.9392,0.316978 1.50272,0.692656 0.57525,0.375678 0.91571,1.068335 0.3522,0.692657 0.3522,1.737511 0,0.798316 -0.27002,1.444013 -0.25828,0.645697 -0.69265,1.056595 -0.42264,0.410898 -1.00964,0.680916 -0.57526,0.270019 -1.17399,0.375679 -0.59874,0.117399 -1.2327,0.117399 z"
       style="font-style:normal;font-variant:normal;font-weight:bold;font-stretch:normal;font-family:Muli;-inkscape-font-specification:'Muli Bold';stroke-width:0.601085"
       id="path1055" />
    <path
       d="M 193.04457,60.338097 V 57.77879 h 2.81759 v 2.559307 z m 0.0117,14.534047 V 62.826965 h 2.80585 v 12.045179 z"
       style="font-style:normal;font-variant:normal;font-weight:bold;font-stretch:normal;font-family:Muli;-inkscape-font-specification:'Muli Bold';stroke-width:0.601085"
       id="path1057" />
    <path
       d="m 199.38414,74.872144 v -7.454862 q 0,-1.279654 -0.0587,-2.418428 -0.0587,-1.150514 -0.1174,-1.655332 l -0.0587,-0.516557 h 3.08761 v 1.608372 q 0.62221,-0.939196 1.65533,-1.420533 1.04485,-0.493078 2.01927,-0.493078 1.04485,0 1.83143,0.281759 0.78658,0.270018 1.38531,0.892235 0.61048,0.610477 0.92746,1.690552 0.31698,1.080074 0.31698,2.618007 v 6.867865 h -2.91151 V 67.8047 q 0,-1.596632 -0.50482,-2.254069 -0.49307,-0.669177 -1.64359,-0.669177 -0.42264,0 -0.92745,0.187839 -0.50482,0.18784 -0.98616,0.528298 -0.4696,0.328718 -0.78657,0.880495 -0.31698,0.540038 -0.31698,1.185734 v 7.208324 z"
       style="font-style:normal;font-variant:normal;font-weight:bold;font-stretch:normal;font-family:Muli;-inkscape-font-specification:'Muli Bold';stroke-width:0.601085"
       id="path1059" />
    <path
       d="m 220.563,74.860405 h -1.174 q -0.70439,0 -1.22095,-0.03522 -0.51656,-0.03522 -1.06834,-0.15262 -0.54003,-0.117399 -0.92745,-0.305238 -0.37568,-0.199579 -0.72788,-0.528297 -0.3522,-0.328719 -0.56351,-0.786576 -0.21132,-0.469598 -0.34046,-1.115295 -0.1174,-0.645697 -0.1174,-1.479232 v -5.682132 h -2.51235 v -1.94883 h 2.62975 v -2.817586 l 2.78236,-0.857016 v 3.674602 h 3.14631 v 1.94883 h -3.14631 v 5.858231 q 0,0.563517 0.0822,0.915715 0.0939,0.340458 0.27002,0.575257 0.1761,0.223059 0.587,0.328719 0.42264,0.105659 0.91571,0.140879 0.49308,0.03522 1.38532,0.03522 z"
       style="font-style:normal;font-variant:normal;font-weight:bold;font-stretch:normal;font-family:Muli;-inkscape-font-specification:'Muli Bold';stroke-width:0.601085"
       id="path1061" />
    <path
       d="m 225.71683,67.405542 h 5.98737 q -0.21132,-1.279654 -0.95094,-1.96057 -0.73961,-0.680917 -1.80795,-0.680917 -1.25617,0 -2.10145,0.704396 -0.84527,0.704397 -1.12703,1.937091 z m 3.4398,7.736621 q -3.04064,0 -4.80163,-1.737511 -1.74925,-1.737512 -1.74925,-4.543357 0,-1.267914 0.42263,-2.406688 0.42264,-1.138775 1.18574,-2.01927 0.77483,-0.880496 1.94883,-1.397053 1.18573,-0.516558 2.618,-0.516558 1.43228,0 2.50061,0.493078 1.06834,0.493077 1.69055,1.385313 0.62222,0.880495 0.91572,1.98405 0.30524,1.103554 0.30524,2.441908 0,0.340458 -0.0587,0.516557 h -8.45276 q 0.0704,1.760991 1.06833,2.606267 1.00964,0.845276 2.67671,0.845276 1.94883,0 3.80374,-1.291394 l 0.78658,2.11319 q -1.13878,0.786576 -2.30103,1.162254 -1.15051,0.363938 -2.55931,0.363938 z"
       style="font-style:normal;font-variant:normal;font-weight:bold;font-stretch:normal;font-family:Muli;-inkscape-font-specification:'Muli Bold';stroke-width:0.601085"
       id="path1063" />
    <path
       d="m 237.39807,74.872144 v -8.992795 q 0,-0.704396 -0.0587,-1.467492 -0.0587,-0.763096 -0.1174,-1.173994 l -0.0587,-0.410898 h 3.09935 v 1.584892 q 0.71613,-0.939196 1.42053,-1.408793 0.71614,-0.481338 1.60837,-0.481338 0.5283,0 1.19748,0.176099 v 2.547568 q -0.78658,-0.258279 -1.45576,-0.258279 -1.20921,0 -1.97231,0.786576 -0.76309,0.786576 -0.76309,2.277549 v 6.820905 z"
       style="font-style:normal;font-variant:normal;font-weight:bold;font-stretch:normal;font-family:Muli;-inkscape-font-specification:'Muli Bold';stroke-width:0.601085"
       id="path1065" />
    <path
       d="m 246.50827,74.872144 v -7.454862 q 0,-1.279654 -0.0587,-2.418428 -0.0587,-1.150514 -0.1174,-1.655332 l -0.0587,-0.516557 h 3.0876 v 1.608372 q 0.62222,-0.939196 1.65533,-1.420533 1.04486,-0.493078 2.01927,-0.493078 1.04486,0 1.83143,0.281759 0.78658,0.270018 1.38532,0.892235 0.61047,0.610477 0.92745,1.690552 0.31698,1.080074 0.31698,2.618007 v 6.867865 h -2.91151 V 67.8047 q 0,-1.596632 -0.50481,-2.254069 -0.49308,-0.669177 -1.64359,-0.669177 -0.42264,0 -0.92746,0.187839 -0.50482,0.18784 -0.98615,0.528298 -0.4696,0.328718 -0.78658,0.880495 -0.31698,0.540038 -0.31698,1.185734 v 7.208324 z"
       style="font-style:normal;font-variant:normal;font-weight:bold;font-stretch:normal;font-family:Muli;-inkscape-font-specification:'Muli Bold';stroke-width:0.601085"
       id="path1067" />
    <path
       d="m 263.40204,67.405542 h 5.98737 q -0.21132,-1.279654 -0.95094,-1.96057 -0.73961,-0.680917 -1.80795,-0.680917 -1.25617,0 -2.10145,0.704396 -0.84527,0.704397 -1.12703,1.937091 z m 3.4398,7.736621 q -3.04064,0 -4.80163,-1.737511 -1.74926,-1.737512 -1.74926,-4.543357 0,-1.267914 0.42264,-2.406688 0.42264,-1.138775 1.18574,-2.01927 0.77483,-0.880496 1.94883,-1.397053 1.18573,-0.516558 2.618,-0.516558 1.43228,0 2.50061,0.493078 1.06834,0.493077 1.69055,1.385313 0.62222,0.880495 0.91572,1.98405 0.30524,1.103554 0.30524,2.441908 0,0.340458 -0.0587,0.516557 h -8.45276 q 0.0704,1.760991 1.06833,2.606267 1.00964,0.845276 2.67671,0.845276 1.94883,0 3.80374,-1.291394 l 0.78658,2.11319 q -1.13878,0.786576 -2.30103,1.162254 -1.15052,0.363938 -2.55931,0.363938 z"
       style="font-style:normal;font-variant:normal;font-weight:bold;font-stretch:normal;font-family:Muli;-inkscape-font-specification:'Muli Bold';stroke-width:0.601085"
       id="path1069" />
    <path
       d="m 279.45054,75.142163 q -1.58489,0 -2.91151,-0.446118 -1.32661,-0.446117 -2.11318,-1.068334 l 0.72787,-2.08971 q 0.73962,0.575257 1.86665,0.950935 1.12704,0.363939 2.17189,0.363939 0.97442,0 1.46749,-0.328719 0.50482,-0.328718 0.50482,-1.068334 v -0.211319 q 0,-0.375679 -0.2935,-0.633957 -0.2935,-0.270019 -1.35009,-0.610477 l -1.71403,-0.551777 q -0.65744,-0.211319 -1.09182,-0.387418 -0.43437,-0.18784 -0.89223,-0.469598 -0.44612,-0.281759 -0.7044,-0.610477 -0.24654,-0.340458 -0.4109,-0.821796 -0.15262,-0.493078 -0.15262,-1.127034 0,-0.915716 0.3522,-1.608372 0.36394,-0.692657 0.9979,-1.091815 0.63395,-0.399158 1.40879,-0.586997 0.77484,-0.199579 1.70229,-0.199579 1.15052,0 2.30103,0.293499 1.15052,0.293498 2.01927,0.868755 l -0.75136,1.99579 q -0.70439,-0.375678 -1.65533,-0.633957 -0.93919,-0.258278 -1.70229,-0.258278 -0.99789,0 -1.44401,0.246539 -0.44612,0.246538 -0.44612,0.810055 0,0.375679 0.14088,0.586998 0.14088,0.211318 0.587,0.434377 0.44612,0.223059 1.43227,0.551778 l 1.56141,0.528297 q 0.9392,0.316978 1.50271,0.692657 0.57526,0.375678 0.91572,1.068334 0.3522,0.692657 0.3522,1.737511 0,0.798316 -0.27002,1.444013 -0.25828,0.645697 -0.69266,1.056595 -0.42263,0.410898 -1.00963,0.680917 -0.57526,0.270018 -1.174,0.375678 -0.59873,0.117399 -1.23269,0.117399 z"
       style="font-style:normal;font-variant:normal;font-weight:bold;font-stretch:normal;font-family:Muli;-inkscape-font-specification:'Muli Bold';stroke-width:0.601085"
       id="path1071" />
  </g>
</svg>
