<svg id="Calque_1" data-name="Calque 1" xmlns="http://www.w3.org/2000/svg" viewBox="0 0 323.17 94.07"><defs><style>.cls-1{fill:#1d1d1b;}.cls-2{fill:#0e415f;}.cls-3{fill:#b7c905;}.cls-4{fill:#fff;}</style></defs><path class="cls-1" d="M330.92,421.61h6a8.66,8.66,0,0,1,6.25,2.14,9.34,9.34,0,0,1,0,12.09,8.62,8.62,0,0,1-6.25,2.15h-6Zm5.84,14c3.77,0,5.66-1.94,5.66-5.8s-1.89-5.75-5.66-5.75h-2.88v11.55Z" transform="translate(-128.47 -377.17)"/><path class="cls-1" d="M358.4,432.33h-8a4.19,4.19,0,0,0,.93,2.75,3.28,3.28,0,0,0,2.49.89,5.74,5.74,0,0,0,3.55-1.25l.82,2a6.4,6.4,0,0,1-2,1.07,7.67,7.67,0,0,1-2.45.4,6.1,6.1,0,0,1-4.49-1.61,5.89,5.89,0,0,1-1.63-4.41,6.83,6.83,0,0,1,.71-3.15,5.33,5.33,0,0,1,2-2.15,5.54,5.54,0,0,1,2.92-.77,4.82,4.82,0,0,1,3.79,1.55,6.14,6.14,0,0,1,1.39,4.26Zm-7-3.51a3.38,3.38,0,0,0-.93,2h5.4a3.22,3.22,0,0,0-.79-2,2.44,2.44,0,0,0-1.81-.66A2.63,2.63,0,0,0,351.42,428.82Zm.86-3.94,2.3-4.74h2.95l-3.39,4.74Z" transform="translate(-128.47 -377.17)"/><path class="cls-1" d="M377.49,427.26a5.65,5.65,0,0,1,1,3.6V438h-2.88v-7a3.42,3.42,0,0,0-.45-2,1.73,1.73,0,0,0-1.48-.61,2.26,2.26,0,0,0-1.87.84,3.53,3.53,0,0,0-.68,2.31V438h-2.88v-7a3.36,3.36,0,0,0-.47-2,1.75,1.75,0,0,0-1.48-.62,2.31,2.31,0,0,0-1.89.84,3.54,3.54,0,0,0-.69,2.31V438h-2.85v-8.33a24.79,24.79,0,0,0-.19-3.28h2.7l.2,1.83a3.72,3.72,0,0,1,1.46-1.58,4.3,4.3,0,0,1,2.2-.55,3.3,3.3,0,0,1,3.47,2.2,4,4,0,0,1,1.58-1.62,4.51,4.51,0,0,1,2.29-.58A3.56,3.56,0,0,1,377.49,427.26Z" transform="translate(-128.47 -377.17)"/><path class="cls-1" d="M392.62,426.38V438h-2.83v-1.86a3.7,3.7,0,0,1-1.51,1.5,4.63,4.63,0,0,1-2.26.54,5,5,0,0,1-2.69-.73,4.78,4.78,0,0,1-1.81-2.1,7.23,7.23,0,0,1-.65-3.15,7.35,7.35,0,0,1,.66-3.18,5,5,0,0,1,1.83-2.16,4.69,4.69,0,0,1,2.66-.77,4.63,4.63,0,0,1,2.26.54,3.7,3.7,0,0,1,1.51,1.5v-1.74ZM389,434.93a4.4,4.4,0,0,0,.78-2.78,4.48,4.48,0,0,0-.78-2.83,3,3,0,0,0-4.45,0,4.54,4.54,0,0,0-.79,2.84,4.22,4.22,0,0,0,.79,2.76,2.73,2.73,0,0,0,2.24,1A2.64,2.64,0,0,0,389,434.93Z" transform="translate(-128.47 -377.17)"/><path class="cls-1" d="M403.16,426.28l0,2.63a4,4,0,0,0-1.51-.3,2.87,2.87,0,0,0-2.25.85,3.23,3.23,0,0,0-.77,2.25V438h-2.85v-8.33a26.77,26.77,0,0,0-.18-3.28h2.69l.23,2a3.44,3.44,0,0,1,1.38-1.72,3.9,3.9,0,0,1,2.14-.6A3.31,3.31,0,0,1,403.16,426.28Z" transform="translate(-128.47 -377.17)"/><path class="cls-1" d="M406.65,437.44a5,5,0,0,1-2-2.08,7.25,7.25,0,0,1,0-6.36,5.29,5.29,0,0,1,2.12-2.15,6.24,6.24,0,0,1,3.16-.77,7.45,7.45,0,0,1,2.4.39,4.62,4.62,0,0,1,1.85,1.08l-.8,2a5.63,5.63,0,0,0-1.56-.91,4.85,4.85,0,0,0-1.64-.31,3.13,3.13,0,0,0-2.44,1,5,5,0,0,0,0,5.62,3.1,3.1,0,0,0,2.45,1,4.64,4.64,0,0,0,1.64-.32,5.93,5.93,0,0,0,1.56-.92l.8,2a5.07,5.07,0,0,1-1.9,1.08,7.83,7.83,0,0,1-2.47.39A6.43,6.43,0,0,1,406.65,437.44Z" transform="translate(-128.47 -377.17)"/><path class="cls-1" d="M426.92,430.86V438H424v-7a3.12,3.12,0,0,0-.53-2,2,2,0,0,0-1.63-.64,2.8,2.8,0,0,0-2.12.84,3.1,3.1,0,0,0-.8,2.22V438h-2.85V421.06H419v7a4.26,4.26,0,0,1,1.58-1.46,4.76,4.76,0,0,1,2.21-.51Q426.92,426.08,426.92,430.86Z" transform="translate(-128.47 -377.17)"/><path class="cls-1" d="M440.14,432.33h-8a4.19,4.19,0,0,0,.93,2.75,3.28,3.28,0,0,0,2.49.89,5.74,5.74,0,0,0,3.55-1.25l.82,2a6.4,6.4,0,0,1-2,1.07,7.67,7.67,0,0,1-2.45.4,6.1,6.1,0,0,1-4.49-1.61,5.93,5.93,0,0,1-1.63-4.41A6.83,6.83,0,0,1,430,429a5.33,5.33,0,0,1,2-2.15,5.55,5.55,0,0,1,2.93-.77,4.81,4.81,0,0,1,3.78,1.55,6.14,6.14,0,0,1,1.39,4.26Zm-7-3.51a3.38,3.38,0,0,0-.93,2h5.4a3.22,3.22,0,0,0-.79-2,2.43,2.43,0,0,0-1.8-.66A2.64,2.64,0,0,0,433.16,428.82Z" transform="translate(-128.47 -377.17)"/><path class="cls-1" d="M441.82,436.7l.81-2a7,7,0,0,0,4.25,1.38,3.09,3.09,0,0,0,1.6-.35,1.08,1.08,0,0,0,.56-1,1,1,0,0,0-.39-.84,3.47,3.47,0,0,0-1.33-.54l-1.94-.44q-3.17-.69-3.17-3.24a3.1,3.1,0,0,1,.6-1.88,3.91,3.91,0,0,1,1.68-1.27,6.28,6.28,0,0,1,2.51-.46,7.43,7.43,0,0,1,2.39.38,6.15,6.15,0,0,1,2,1.09l-.85,1.95a6,6,0,0,0-3.59-1.29,2.8,2.8,0,0,0-1.54.37,1.16,1.16,0,0,0-.55,1,1,1,0,0,0,.33.81,2.77,2.77,0,0,0,1.14.51l2,.43a5,5,0,0,1,2.52,1.21,2.91,2.91,0,0,1,.79,2.13,3,3,0,0,1-1.29,2.55,5.84,5.84,0,0,1-3.52.94A7.86,7.86,0,0,1,441.82,436.7Z" transform="translate(-128.47 -377.17)"/><path class="cls-2" d="M218.52,397.6a4.94,4.94,0,0,0-2.48-.68,4.64,4.64,0,0,0-4.66,4.66,1.18,1.18,0,0,0,0,.59Z" transform="translate(-128.47 -377.17)"/><path class="cls-2" d="M294.29,425.9a4,4,0,0,0-2.43-.68,4.27,4.27,0,0,0-3.3,1.36,4.49,4.49,0,0,0-1.36,3.3v.59Z" transform="translate(-128.47 -377.17)"/><path class="cls-2" d="M180.85,406.19a4.71,4.71,0,0,0,3.3-1.35,4.21,4.21,0,0,0,1.36-3.31,4.69,4.69,0,1,0-8.16,3.31,4.87,4.87,0,0,0,3.55,1.5Z" transform="translate(-128.47 -377.17)"/><path class="cls-2" d="M255.85,425.22a4.7,4.7,0,0,0-3.3,1.36,4.6,4.6,0,0,0-.05,6.51l.05.05a4.6,4.6,0,0,0,6.5,0l.05,0a4.66,4.66,0,0,0,1.36-3.31,4.74,4.74,0,0,0-1.36-3.3A4.57,4.57,0,0,0,255.85,425.22Z" transform="translate(-128.47 -377.17)"/><path class="cls-2" d="M203.13,434.49a4.65,4.65,0,1,0-3.3-8h0a4.66,4.66,0,0,0,0,6.56,4.61,4.61,0,0,0,3.25,1.36h0Z" transform="translate(-128.47 -377.17)"/><path class="cls-2" d="M260.46,446.1v-9.28a8.16,8.16,0,0,1-10.73-.92,8.27,8.27,0,0,1-2.43-6,8.64,8.64,0,0,1,17.28,0V446h-.53c14.08.19,30.39.87,49.42,2.18V397.51c-69.27-26.75-153-25.44-185-5.78L155,471.24c4.41-2.67,8.69-5.19,13-7.47h0C188.76,452.46,210.41,445.71,260.46,446.1Zm25.29-22.33a8.47,8.47,0,0,1,6.11-2.58,8.63,8.63,0,0,1,4.81,1.46,9.22,9.22,0,0,1,3.2,3.88v.34l-10.58,6.95a4.88,4.88,0,0,0,2.43.67,4.34,4.34,0,0,0,3.35-1.4,5,5,0,0,0,.87-1.36h4.18a8.35,8.35,0,0,1-2.24,4.12,7.92,7.92,0,0,1-6.11,2.67,8.55,8.55,0,0,1-6.12-2.47,8.15,8.15,0,0,1-2.52-6.07A8.62,8.62,0,0,1,285.75,423.77Zm-18.84-2.28h4v9.61a3.46,3.46,0,0,0,3.35,3.39,3.33,3.33,0,0,0,2.38-1,3.13,3.13,0,0,0,1-2.38v-9.57h4v9.62a7,7,0,0,1-2.23,5.09,7.1,7.1,0,0,1-10,.29l-.29-.29a6.92,6.92,0,0,1-2.19-5.09Zm-81.4,3.93h-2.67v12.72H179V425.42h-2.58v-3.93H179v-5.34h3.93v5.38h2.67Zm6.7,12.72h-4V416h3.93ZM240.94,416h3.94v3.93h-4Zm0,5.34h3.94V438h-4Zm-10.77,0h2.57V416h3.79v5.39h2.57v3.93h-2.57V438h-3.94V425.47H230Zm-1.12,7.09V438h-4.12v-9.47a3.4,3.4,0,0,0-6.8,0h0v9.61H214.2v-9.61a7.46,7.46,0,0,1,7.33-7.33,6.92,6.92,0,0,1,5.09,2.19,7.16,7.16,0,0,1,2.24,5.14Zm-18.78-33.11a8.11,8.11,0,0,1,6.06-2.52,8.66,8.66,0,0,1,8,5.34l.15.34-10.88,6.89a4.86,4.86,0,0,0,2.48.68,4.2,4.2,0,0,0,3.25-1.41,4.8,4.8,0,0,0,.93-1.41h4.17a8.5,8.5,0,0,1-2.28,4.18A8,8,0,0,1,216,410a8.45,8.45,0,0,1-6.11-2.47,8.23,8.23,0,0,1-2.53-6.07,8.33,8.33,0,0,1,2.53-6Zm-11.36,4.95a6.78,6.78,0,0,1,2.28-5.19,7.41,7.41,0,0,1,5.39-2.14H207v3.93h-.63a3.7,3.7,0,0,0-2.67,1,3.3,3.3,0,0,0-1.07,2.42v9.61h-3.78v-9.61Zm4.22,21a8.59,8.59,0,0,1,6.12,2.58,8.19,8.19,0,0,1,2.52,6.06v8.3h-3.93v-1.36a8.27,8.27,0,0,1-10.73-.92,8.66,8.66,0,0,1,.24-12.23,8.82,8.82,0,0,1,5.93-2.43ZM191.87,387.6h3.93v3.94h-3.93Zm0,5.59h3.93v16.69h-3.93Zm-17.14,2.28a8.44,8.44,0,0,1,6.12-2.53,8.57,8.57,0,1,1-.1,17.14,8.57,8.57,0,0,1-6-14.61Zm-16.11-7.77h4.12v18.06h9.08v4.12H158.71Zm3,50.44h-4.28L165.22,416h4.61l7.86,22.19h-4.41l-1.36-3.69h-8.84Z" transform="translate(-128.47 -377.17)"/><polygon class="cls-2" points="35.97 53.58 42.09 53.58 39.03 45.18 35.97 53.58"/><path class="cls-3" d="M167.89,463.77H313.37V448.38C229.29,443.23,199.68,446.87,167.89,463.77Z" transform="translate(-128.47 -377.17)"/><path class="cls-3" d="M313.71,448.38" transform="translate(-128.47 -377.17)"/><path class="cls-3" d="M313.37,448.38h0c-19.08-1.31-35.34-2-49.42-2.19h-3.44c-50-.53-71.75,6.22-92.67,17.58h0C199.68,446.87,229.29,443.23,313.37,448.38Z" transform="translate(-128.47 -377.17)"/><path class="cls-4" d="M180.85,410.13a8.6,8.6,0,1,0,0-17.19,8.6,8.6,0,0,0-6.12,14.66h0A8.33,8.33,0,0,0,180.85,410.13Zm-3.3-11.85a4.67,4.67,0,0,1,6.55,0,4.58,4.58,0,0,1,1.36,3.25,4.42,4.42,0,0,1-1.36,3.31,4.65,4.65,0,0,1-7-6.07A4.53,4.53,0,0,1,177.55,398.28Z" transform="translate(-128.47 -377.17)"/><rect class="cls-4" x="63.4" y="16.01" width="3.93" height="16.7"/><path class="cls-4" d="M202.84,400.27a3,3,0,0,1,1.07-2.42,3.68,3.68,0,0,1,2.67-1H207v-3.93h-.63a7.51,7.51,0,0,0-5.39,2.14,6.81,6.81,0,0,0-2.28,5.19v9.61h3.93Z" transform="translate(-128.47 -377.17)"/><polygon class="cls-4" points="54.37 38.83 50.44 38.83 50.44 44.31 47.86 44.31 47.86 48.24 50.44 48.24 50.44 60.96 54.37 60.96 54.37 48.24 56.94 48.24 56.94 44.31 54.37 44.31 54.37 38.83"/><rect class="cls-4" x="59.71" y="38.78" width="3.93" height="22.18"/><path class="cls-4" d="M197,435.85a8.16,8.16,0,0,0,10.72.93v1.36h4.08v-8.31a8.19,8.19,0,0,0-2.52-6.06A8.62,8.62,0,0,0,197,435.85Zm2.91-9.27a4.62,4.62,0,0,1,6.55,0h0a4.45,4.45,0,0,1,1.36,3.3,4.66,4.66,0,0,1-4.66,4.66,4.67,4.67,0,0,1-3.25-8Z" transform="translate(-128.47 -377.17)"/><path class="cls-4" d="M216.38,423.43a7,7,0,0,0-2.18,5.14v9.61h3.93v-9.61a3.4,3.4,0,0,1,6.8,0h0v9.61h3.93v-9.61a7.16,7.16,0,0,0-2.24-5.14,6.92,6.92,0,0,0-5.09-2.19A7.13,7.13,0,0,0,216.38,423.43Z" transform="translate(-128.47 -377.17)"/><polygon class="cls-4" points="104.07 61.01 108.05 61.01 108.05 48.24 110.63 48.24 110.63 44.31 108.05 44.31 108.05 38.83 104.07 38.83 104.07 44.31 101.55 44.31 101.55 48.24 104.07 48.24 104.07 61.01"/><rect class="cls-4" x="112.37" y="44.31" width="3.93" height="16.7"/><rect class="cls-4" x="112.37" y="38.83" width="3.93" height="3.93"/><path class="cls-4" d="M264.44,429.83a8.64,8.64,0,1,0-14.86,6,8.18,8.18,0,0,0,10.73.93v9.27h4.08V429.83Zm-5.34,3.31a4.61,4.61,0,0,1-6.51,0l0,0a4.6,4.6,0,0,1-.05-6.51l.05-.05a4.42,4.42,0,0,1,3.3-1.36,4.74,4.74,0,0,1,3.3,1.36,4.49,4.49,0,0,1,1.36,3.3,4.9,4.9,0,0,1-1.41,3.26Z" transform="translate(-128.47 -377.17)"/><path class="cls-4" d="M260.46,446.1" transform="translate(-128.47 -377.17)"/><path class="cls-4" d="M274.2,438.43a7.31,7.31,0,0,0,5.14-2.19,7,7,0,0,0,2.23-5.09v-9.62h-4v9.62a3.37,3.37,0,0,1-1,2.37,3.43,3.43,0,0,1-2.38,1,3.49,3.49,0,0,1-3.3-3.39v-9.62h-4.07v9.62a6.91,6.91,0,0,0,2.18,5.09A7.12,7.12,0,0,0,274.2,438.43Z" transform="translate(-128.47 -377.17)"/><path class="cls-4" d="M216.09,410.13a8.2,8.2,0,0,0,6.12-2.58,9.09,9.09,0,0,0,2.28-4.17h-4.18a4.4,4.4,0,0,1-.92,1.41,4.19,4.19,0,0,1-3.25,1.4,5,5,0,0,1-2.48-.67l10.59-6.9-.15-.34a9,9,0,0,0-3.2-3.88,8.39,8.39,0,0,0-4.81-1.46,8.15,8.15,0,0,0-6.07,2.53,8.41,8.41,0,0,0-2.52,6.11,8.54,8.54,0,0,0,8.59,8.55Zm-3.35-11.85a4.44,4.44,0,0,1,3.3-1.36,4.94,4.94,0,0,1,2.48.68l-7,4.57a1.18,1.18,0,0,1,0-.59A4.37,4.37,0,0,1,212.74,398.28Z" transform="translate(-128.47 -377.17)"/><path class="cls-4" d="M291.86,438.43a8,8,0,0,0,6.12-2.67,8.63,8.63,0,0,0,2.23-4.13H296a6.31,6.31,0,0,1-.87,1.36,4.25,4.25,0,0,1-3.31,1.41,4.75,4.75,0,0,1-2.42-.68l10.58-6.8v-.34a9.29,9.29,0,0,0-3.2-3.88,8.39,8.39,0,0,0-4.81-1.46A8.66,8.66,0,0,0,285.94,436,8.62,8.62,0,0,0,291.86,438.43Zm-3.3-11.85a4.2,4.2,0,0,1,3.3-1.36,4.75,4.75,0,0,1,2.43.68l-7,4.57v-.59A4.41,4.41,0,0,1,288.56,426.58Z" transform="translate(-128.47 -377.17)"/><polygon class="cls-4" points="43.45 28.58 34.32 28.58 34.32 10.53 30.24 10.53 30.24 32.71 43.45 32.71 43.45 28.58"/><path class="cls-4" d="M173.28,438.14h4.41L169.83,416h-4.61l-7.87,22.19h4.37l1.36-3.69h8.84Zm-8.84-7.38,3.06-8.4,3.06,8.4Z" transform="translate(-128.47 -377.17)"/><rect class="cls-4" x="63.4" y="10.43" width="3.93" height="3.93"/></svg>