<?xml version="1.0" encoding="UTF-8"?>
<svg xmlns:cc="http://creativecommons.org/ns#" xmlns:dc="http://purl.org/dc/elements/1.1/" xmlns:rdf="http://www.w3.org/1999/02/22-rdf-syntax-ns#" space="preserve" version="1.1" viewBox="0 0 340.65 61.899" xmlns="http://www.w3.org/2000/svg">
<metadata>
<rdf:RDF>
<cc:Work rdf:about="">
<dc:format>image/svg+xml</dc:format>
<dc:type rdf:resource="http://purl.org/dc/dcmitype/StillImage"/>
<dc:title/>
</cc:Work>
</rdf:RDF>
</metadata>
<style type="text/css">.st0{fill:#004461;}
	.st1{fill:#AFCA00;}
	.st2{fill:#FFFFFF;}</style>
<g transform="translate(0 -.00089836)">
<g>
<path class="st0" d="m59.2 13.4c-0.5-0.3-1.1-0.4-1.7-0.4-0.8 0-1.6 0.3-2.2 1-0.6 0.6-0.9 1.4-0.8 2.2v0.4z"/>
<path class="st0" d="m109.1 32.1c-0.5-0.3-1.1-0.4-1.7-0.4-0.8 0-1.6 0.3-2.2 1-0.6 0.6-0.9 1.4-0.8 2.2v0.4z"/>
<path class="st0" d="m34.5 19.1c0.8 0 1.6-0.3 2.2-0.8 0.6-0.6 0.9-1.4 1-2.2 0-0.8-0.3-1.6-1-2.2-0.6-0.6-1.4-0.9-2.2-1-1.7 0-3.1 1.4-3 3.1v0.1c0 0.8 0.3 1.6 0.8 2.2 0.6 0.5 1.3 0.8 2.2 0.8z"/>
<path class="st0" d="m83.9 31.6c-1.7 0-3.1 1.4-3 3.1v0.1c0 0.8 0.3 1.6 0.8 2.2 0.6 0.6 1.4 0.9 2.2 0.8 0.8 0 1.6-0.3 2.2-0.8 0.6-0.6 0.9-1.4 1-2.2-0.1-1.8-1.5-3.2-3.2-3.2z"/>
<path class="st0" d="m49.1 37.7c0.8 0 1.6-0.3 2.2-0.8 0.6-0.6 0.9-1.4 1-2.2 0-0.8-0.3-1.6-1-2.2-0.6-0.6-1.4-0.9-2.2-1-1.7 0-3.1 1.4-3 3.1v0.1c0 0.8 0.3 1.6 0.8 2.2 0.6 0.5 1.4 0.8 2.2 0.8z"/>
<path class="st0" d="m86.9 45.4v-6.1c-0.9 0.7-2 1.1-3.2 1.1-1.5 0-2.9-0.6-3.9-1.7-2.2-2.2-2.2-5.8 0-8s5.8-2.2 8 0c1.1 1.1 1.7 2.5 1.7 4v10.7h-0.3c9.3 0.1 19.9 0.6 32.5 1.4v-33.4c-45.6-17.7-100.7-16.7-121.7-3.8l17.4 52.3c2.9-1.8 5.7-3.5 8.6-5 13.7-7.3 28-11.8 60.9-11.5zm16.6-14.7c1.1-1.1 2.5-1.7 4-1.7 1.1 0 2.3 0.3 3.2 1 0.9 0.6 1.6 1.5 2.1 2.5l0.1 0.3-6.9 4.6c0.5 0.3 1.1 0.4 1.7 0.4 0.8 0 1.6-0.3 2.2-1 0.3-0.3 0.5-0.6 0.6-1h2.8c-0.3 1-0.8 2-1.5 2.8-2.2 2.2-5.8 2.2-8 0-1.1-1.1-1.7-2.5-1.7-4-0.2-1.5 0.3-2.9 1.4-3.9zm-12.4-1.5h2.6v6.4c0 1.2 1.1 2.2 2.3 2.1 1.2 0 2.1-1 2.1-2.1v-6.4h2.6v6.4c0 1.3-0.6 2.5-1.5 3.3-1.8 1.8-4.8 1.8-6.7 0-0.9-0.9-1.4-2.1-1.4-3.3zm-53.6 2.5h-1.7v8.3h-2.6v-8.3h-1.7v-2.6h1.7v-3.6h2.6v3.6h1.7zm4.4 8.4h-2.6v-14.6h2.6zm32-14.6h2.6v2.6h-2.6zm0 3.7h2.6v10.9h-2.6zm-7.1 0h1.7v-3.6h2.6v3.6h1.7v2.6h-1.7v8.3h-2.6v-8.3h-1.7zm-0.8 4.6v6.4h-2.6v-6.4c0-1.2-1.1-2.2-2.3-2.1-1.2 0-2.1 1-2.1 2.1v6.4h-2.6v-6.4c0-1.2 0.5-2.4 1.4-3.3 1.6-1.8 4.3-2 6.2-0.5 0.2 0.1 0.3 0.3 0.5 0.5 0.9 0.7 1.6 2 1.5 3.3zm-12.4-21.8c1.1-1.1 2.5-1.7 4-1.7 1.1 0 2.3 0.3 3.2 1 0.9 0.6 1.6 1.5 2.1 2.5l0.1 0.3-6.9 4.6c0.5 0.3 1.1 0.4 1.7 0.4 0.8 0 1.6-0.3 2.2-1 0.3-0.3 0.5-0.6 0.6-1h2.8c-0.3 1-0.8 2-1.5 2.8-2.2 2.2-5.8 2.2-8 0-1.1-1.1-1.7-2.5-1.7-4-0.3-1.4 0.3-2.9 1.4-3.9zm-7.2 3.2c0-1.3 0.6-2.6 1.5-3.5s2.2-1.4 3.5-1.4h0.3v2.7h-0.3c-0.6 0-1.2 0.2-1.7 0.7-0.4 0.4-0.7 0.9-0.7 1.5v6.4h-2.6zm2.7 13.7c3.1 0 5.7 2.5 5.7 5.7v5.5h-2.6v-0.8c-0.9 0.7-2 1.1-3.2 1.1-1.5 0-2.9-0.6-3.9-1.7-2.2-2.2-2.2-5.8 0-8 1.1-1.1 2.5-1.7 4-1.8zm-7.3-22h2.5v2.6h-2.6v-2.6zm0 3.6h2.5v10.9h-2.6v-10.9zm-11.4 1.5c2.2-2.2 5.8-2.2 8 0 1.1 1.1 1.7 2.5 1.7 4 0 3.1-2.5 5.7-5.7 5.7s-5.7-2.5-5.7-5.7c0.1-1.4 0.7-2.9 1.7-4zm-10.5-5.1h2.8v11.9h6v2.8h-8.7v-14.7zm2 33.2h-2.9l5.1-14.7h3l5.3 14.7h-2.9l-0.8-2.5h-5.8z"/>
<path class="st0" d="m23.7 35.3h4l-1.9-5.5z"/>
<path class="st1" d="m26 57h95.6v-10.2c-55.3-3.3-74.7-1-95.6 10.2z"/>
<path class="st1" d="m121.9 46.8"/>
<path class="st1" d="m121.7 46.8c-12.6-0.8-23.3-1.2-32.5-1.4h-2.2c-33-0.3-47.3 4.2-61 11.6 20.9-11.2 40.3-13.5 95.7-10.2z"/>
<path class="st2" d="m34.5 21.7c3.1 0 5.7-2.5 5.7-5.7 0-3.1-2.5-5.7-5.7-5.7s-5.7 2.5-5.7 5.7c0 1.5 0.6 2.9 1.7 4 1 1.2 2.5 1.8 4 1.7zm-2.3-7.9c0.6-0.6 1.4-0.9 2.2-1 0.8 0.1 1.6 0.4 2.2 1s0.9 1.4 1 2.2c0 1.7-1.4 3.1-3.1 3h-0.1c-0.8 0-1.6-0.3-2.2-0.8-0.6-0.6-0.9-1.4-0.8-2.2 0-0.7 0.3-1.5 0.8-2.2z"/>
<rect class="st2" x="41.8" y="10.5" width="2.6" height="10.9"/>
<path class="st2" d="m49 15.2c0-0.6 0.2-1.1 0.7-1.5 0.4-0.4 1-0.7 1.7-0.7h0.3v-2.6h-0.3c-1.3 0-2.5 0.5-3.5 1.4s-1.5 2.1-1.5 3.5v6.4h2.6z"/>
<path class="st2" d="m35.8 25.5h-2.6v3.7h-1.7v2.5h1.7v8.4h2.6v-8.4h1.7v-2.5h-1.7z"/>
<rect class="st2" x="39.3" y="25.5" width="2.6" height="14.7"/>
<path class="st2" d="m45.1 38.6c1 1.1 2.4 1.7 3.9 1.7 1.2 0 2.3-0.4 3.2-1.1v1h2.6v-5.5c0-3.1-2.5-5.7-5.7-5.7s-5.7 2.5-5.7 5.7c0.1 1.4 0.7 2.9 1.7 3.9zm2-6.1c0.6-0.6 1.4-0.9 2.2-1 0.8 0 1.6 0.3 2.2 1 0.6 0.6 0.9 1.4 1 2.2 0 1.7-1.4 3.1-3.1 3h-0.1c-0.8 0-1.6-0.3-2.2-0.8-0.6-0.6-0.9-1.4-0.8-2.2-0.3-0.8 0.1-1.7 0.8-2.2z"/>
<path class="st2" d="m57.9 30.5c-0.9 0.9-1.4 2.1-1.4 3.3v6.4h2.6v-6.4c0-1.2 1.1-2.2 2.3-2.1 1.2 0 2.1 1 2.1 2.1v6.4h2.6v-6.4c0-1.3-0.6-2.5-1.5-3.3-0.9-0.9-2.1-1.5-3.3-1.5-1.3-0.1-2.6 0.5-3.4 1.5z"/>
<path class="st2" d="m68.5 40.1h2.6v-8.4h1.7v-2.5h-1.7v-3.7h-2.6v3.7h-1.7v2.5h1.7z"/>
<rect class="st2" x="73.9" y="29.2" width="2.6" height="10.9"/>
<rect class="st2" x="73.9" y="25.5" width="2.6" height="2.6"/>
<path class="st2" d="m89.5 34.6c0-3.1-2.5-5.7-5.7-5.7-3.1 0-5.7 2.5-5.7 5.7 0 1.5 0.6 2.9 1.7 4 1 1.1 2.4 1.7 3.9 1.7 1.2 0 2.3-0.4 3.2-1.1v6.1h2.5v-10.7zm-3.6 2.2c-0.6 0.6-1.4 0.9-2.2 0.8-0.8 0-1.6-0.3-2.2-0.8-0.6-0.6-0.9-1.4-0.8-2.2 0-0.8 0.3-1.6 0.8-2.2 0.6-0.6 1.4-0.9 2.2-1 0.8 0 1.6 0.3 2.2 1 0.6 0.6 0.9 1.4 1 2.2 0 0.9-0.3 1.7-1 2.2z"/>
<path class="st2" d="m86.9 45.4"/>
<path class="st2" d="m95.9 40.3c1.3 0 2.5-0.5 3.3-1.4 0.9-0.9 1.5-2.1 1.5-3.3v-6.4h-2.6v6.4c0 1.2-1.1 2.2-2.3 2.1-1.2 0-2.1-1-2.1-2.1v-6.4h-2.6v6.4c0 1.2 0.5 2.4 1.4 3.3s2.1 1.4 3.4 1.4z"/>
<path class="st2" d="m57.7 21.7c1.5 0 3-0.6 4-1.7 0.7-0.8 1.2-1.7 1.5-2.8h-2.8c-0.1 0.4-0.3 0.7-0.6 1-0.5 0.7-1.4 1-2.2 1-0.6 0-1.1-0.1-1.7-0.4l6.9-4.6-0.1-0.4c-0.4-1-1.1-1.9-2.1-2.5-0.9-0.7-2-1-3.2-1-3.1 0-5.7 2.5-5.7 5.7 0 1.5 0.6 3 1.7 4 1.3 1.2 2.8 1.8 4.3 1.7zm-2.2-7.9c0.6-0.6 1.4-1 2.2-1 0.6 0 1.1 0.1 1.7 0.4l-4.6 3v-0.4c-0.2-0.6 0.1-1.5 0.7-2z"/>
<path class="st2" d="m107.5 40.3c1.5 0 3-0.6 4-1.7 0.7-0.8 1.2-1.7 1.5-2.8h-2.8c-0.1 0.4-0.3 0.7-0.6 1-0.5 0.7-1.4 1-2.2 1-0.6 0-1.1-0.1-1.7-0.4l6.9-4.6-0.1-0.3c-0.4-1-1.1-1.9-2.1-2.5-0.9-0.7-2-1-3.2-1-3.1 0-5.7 2.5-5.7 5.7 0 1.5 0.6 2.9 1.7 4 1.4 1 2.8 1.6 4.3 1.6zm-2.2-7.8c0.6-0.6 1.4-1 2.2-1 0.6 0 1.1 0.1 1.7 0.4l-4.6 3v-0.4c-0.1-0.7 0.2-1.4 0.7-2z"/>
<path class="st2" d="m28.6 18.8h-6.1v-11.9h-2.6v14.7h8.7z"/>
<path class="st2" d="m29.5 40.1h2.9l-5.1-14.7h-3l-5.1 14.7h2.8l0.8-2.5h5.8zm-5.8-4.8 2.1-5.5 2.1 5.5z"/>
<rect class="st2" x="41.8" y="6.9" width="2.6" height="2.6"/>
</g>
</g>
<script/>
<g font-family="Muli" font-size="22.227px" stroke-width=".55568" style="line-height:1.25" aria-label="Démarches en ligne">
<path d="m133.16 40.098v-15.802h3.8854q4.58 0 7.0003 1.9427t2.4202 5.9801q0 3.7769-2.2466 5.8281-2.2466 2.0512-6.4685 2.0512zm2.073-1.7474h2.6265q3.1691 0 4.7862-1.5954 1.628-1.6063 1.628-4.5366 0-3.1583-1.7365-4.6668-1.7256-1.5086-5.2963-1.5086h-2.0078z"/>
<path d="m150.88 33.445h6.3925q-0.10853-1.5303-0.88996-2.3551-0.78142-0.82484-2.0838-0.82484-1.3675 0-2.29 0.84654-0.91166 0.84654-1.1287 2.3334zm3.6684 6.8917q-2.659 0-4.2219-1.5737-1.5628-1.5846-1.5628-4.2002 0-2.5722 1.4977-4.2219 1.5086-1.6605 3.9831-1.6605 1.5628 0 2.6699 0.72716 1.1179 0.72716 1.6497 1.9753 0.54266 1.2481 0.54266 2.8978 0 0.20621-0.0326 0.5318h-8.2484q0.0326 1.8667 1.0745 2.8869 1.0419 1.0093 2.7567 1.0093 1.997 0 3.5381-1.2373l0.59692 1.476q-1.7908 1.3892-4.2436 1.3892zm-1.2047-12.959 2.5613-3.9071h2.5722l-3.4621 3.9071z"/>
<path d="m162.25 40.098v-8.2267q0-0.56436-0.11939-2.9086h2.073l0.0217 1.8016q0.44498-0.97678 1.4218-1.5303 0.97678-0.55351 2.1381-0.55351 1.1938 0 2.0838 0.62948 0.90081 0.62948 1.3024 1.7799 0.60777-1.1287 1.6388-1.7691 1.0419-0.64033 2.3443-0.64033 1.8993 0 2.8761 1.2156 0.98764 1.2047 0.98764 3.3862v6.8158h-1.997v-6.653q0-1.476-0.49924-2.3009-0.49925-0.83569-1.5412-0.83569-1.3349 0-2.3009 0.97678-0.95507 0.96593-1.0202 2.3877v6.425h-1.997v-6.8266q0-1.3349-0.52095-2.1489t-1.6605-0.81398q-1.3132 0-2.2249 0.8791-0.91166 0.8791-0.99848 2.1272v6.7832z"/>
<path d="m187.41 38.709q1.6605 0 2.5288-1.1504 0.87911-1.1613 0.87911-3.1148 0-1.845-0.88996-2.9846-0.88996-1.1504-2.5396-1.1504-1.7365 0-2.6482 1.1504-0.90081 1.1504-0.90081 3.0172 0 1.8776 0.91166 3.0606 0.91166 1.1721 2.659 1.1721zm-0.28219 1.628q-1.2481 0-2.2683-0.46668-1.0093-0.46668-1.6714-1.259-0.65119-0.80313-1.0093-1.845-0.3473-1.0528-0.3473-2.2357 0-1.628 0.62948-2.9412 0.64033-1.3241 1.8559-2.1164t2.811-0.79228q1.183 0 2.1489 0.57522 0.97678 0.57522 1.476 1.476v-1.7691h1.9753v11.135h-1.997v-1.8993q-0.47754 0.99849-1.4218 1.5737-0.94422 0.56436-2.1815 0.56436z"/>
<path d="m196.5 40.098v-8.4003q0-0.36901-0.0434-1.0528-0.0326-0.68375-0.0651-1.183l-0.0326-0.49924h2.1164l0.0217 1.7365q1.0093-1.997 2.9738-1.997 0.61863 0 1.1287 0.13024l-0.0109 1.7691q-0.64033-0.17365-1.2264-0.17365-1.2807 0-2.0621 0.90081-0.78143 0.88996-0.78143 2.5722v6.1971z"/>
<path d="m210.04 40.337q-2.583 0-4.135-1.6063-1.5411-1.6171-1.5411-4.135 0-2.6373 1.5737-4.2761t4.1459-1.6388q2.3334 0 3.6792 1.3241l-0.70545 1.3241q-1.1613-1.0093-2.8327-1.0093-1.7039 0-2.7567 1.1179-1.0419 1.107-1.0419 3.1474 0 1.8884 1.0093 3.0063 1.0202 1.1179 2.7567 1.1179 1.6822 0 3.0389-1.0419l0.62948 1.4435q-1.5846 1.2264-3.8203 1.2264z"/>
<path d="m216.62 40.098v-16.128h1.997v6.7398q0.49924-0.91166 1.552-1.4652 1.0528-0.56436 2.2357-0.56436 1.0419 0 1.845 0.36901t1.2915 1.0202q0.48839 0.64033 0.73801 1.4869 0.24963 0.83569 0.24963 1.8233v6.7181h-2.0078v-6.6638q0-1.6388-0.56436-2.3768-0.56437-0.74886-1.8233-0.74886-1.3675 0-2.442 0.92252-1.0745 0.92252-1.0745 2.1164v6.7506z"/>
<path d="m231.46 33.445h6.3925q-0.10853-1.5303-0.88996-2.3551-0.78142-0.82484-2.0838-0.82484-1.3675 0-2.29 0.84654-0.91166 0.84654-1.1287 2.3334zm3.6684 6.8917q-2.659 0-4.2219-1.5737-1.5628-1.5846-1.5628-4.2002 0-2.5722 1.4977-4.2219 1.5086-1.6605 3.9831-1.6605 1.5628 0 2.6699 0.72716 1.1179 0.72716 1.6497 1.9753 0.54265 1.2481 0.54265 2.8978 0 0.20621-0.0326 0.5318h-8.2484q0.0326 1.8667 1.0745 2.8869 1.0419 1.0093 2.7567 1.0093 1.997 0 3.5381-1.2373l0.59692 1.476q-1.7908 1.3892-4.2436 1.3892z"/>
<path d="m246.52 40.337q-1.4435 0-2.5505-0.43412-1.0962-0.43412-1.7039-0.91166l0.55351-1.4869q0.61863 0.45583 1.5737 0.82484 0.96592 0.36901 1.9644 0.36901 2.214 0 2.214-1.628 0-0.68375-0.49924-1.0202-0.49925-0.33645-1.9427-0.82484l-0.95508-0.32559q-0.55351-0.19536-0.94422-0.36901-0.37986-0.17365-0.77057-0.43412-0.39071-0.27133-0.62948-0.57522-0.23877-0.31474-0.39072-0.74887-0.14109-0.44498-0.14109-0.99849 0-0.79228 0.3256-1.4001 0.33644-0.61863 0.91166-0.96593 0.57522-0.35815 1.2698-0.5318 0.6946-0.1845 1.4977-0.1845 2.2032 0 3.7118 0.96593l-0.55351 1.4326q-1.4652-0.78142-2.9304-0.78142-1.0745 0-1.6605 0.36901-0.58606 0.36901-0.58606 1.0419 0 0.60778 0.3473 0.90081 0.35815 0.28218 1.4109 0.66204 0.94422 0.31474 1.1179 0.37986 0.68375 0.23877 1.0962 0.41242t0.8791 0.46668q0.47754 0.28218 0.72716 0.59692 0.26048 0.31474 0.42327 0.79228 0.17365 0.46668 0.17365 1.0636 0 0.88996-0.33644 1.5628-0.33645 0.66204-0.91167 1.0419-0.57521 0.36901-1.2481 0.55351-0.67289 0.1845-1.4435 0.1845z"/>
<path d="m261.19 33.445h6.3925q-0.10853-1.5303-0.88996-2.3551-0.78142-0.82484-2.0838-0.82484-1.3675 0-2.29 0.84654-0.91166 0.84654-1.1287 2.3334zm3.6684 6.8917q-2.659 0-4.2219-1.5737-1.5628-1.5846-1.5628-4.2002 0-2.5722 1.4977-4.2219 1.5086-1.6605 3.9831-1.6605 1.5628 0 2.6699 0.72716 1.1179 0.72716 1.6497 1.9753 0.54266 1.2481 0.54266 2.8978 0 0.20621-0.0326 0.5318h-8.2484q0.0326 1.8667 1.0745 2.8869 1.0419 1.0093 2.7567 1.0093 1.997 0 3.5381-1.2373l0.59692 1.476q-1.7908 1.3892-4.2436 1.3892z"/>
<path d="m272.56 40.098v-8.053q0-0.73801-0.0326-1.5086-0.0217-0.77057-0.0543-1.1721l-0.0326-0.40157h2.0621l0.0217 1.7474q0.57522-0.95508 1.6063-1.4869 1.0419-0.54266 2.1923-0.54266 2.1055 0 3.104 1.2807 0.99849 1.2698 0.99849 3.8637v6.2731h-1.997v-6.2623q0-1.8125-0.54266-2.6699-0.54265-0.8574-1.9102-0.8574-1.259 0-2.29 0.8574-1.031 0.84654-1.1179 1.9536v6.9786z"/>
<path d="m292.53 40.098v-16.128h1.997v16.128z"/>
<path d="m298.19 26.152v-1.8559h1.9753v1.8559zm-0.0109 13.946v-11.135h1.9861v11.135z"/>
<path d="m308.41 38.383q1.6931 0 2.5722-1.0962 0.8791-1.107 0.8791-2.9629 0-1.8342-0.8791-2.9195-0.86825-1.0962-2.4311-1.0962-1.5954 0-2.5071 1.1504t-0.91166 3.0172q0 1.8559 0.85739 2.8869 0.8574 1.0202 2.4202 1.0202zm-0.24962 6.2514q-2.1923 0-4.1133-0.94422l0.31475-1.7256q1.845 1.0528 3.7226 1.0528 1.7799 0 2.7567-0.95508t0.97678-2.8869v-1.1613q-0.46668 0.83569-1.3566 1.3892-0.8791 0.54266-2.1706 0.54266-2.3117 0-3.7769-1.4652-1.4543-1.476-1.4543-3.9831 0-1.7039 0.58607-3.0063 0.59692-1.3024 1.7908-2.0512 1.1938-0.75972 2.8435-0.75972 1.2698 0 2.1598 0.54266 0.88995 0.54266 1.3783 1.3892l0.0326-1.6497h2.0621q-0.11939 1.8016-0.11939 2.9955v6.6204q0 1.3241-0.32559 2.4094-0.3256 1.0853-0.99849 1.9101-0.66204 0.82484-1.7582 1.2807-1.0962 0.45583-2.5505 0.45583z"/>
<path d="m317.63 40.098v-8.053q0-0.73801-0.0326-1.5086-0.0217-0.77057-0.0543-1.1721l-0.0326-0.40157h2.0621l0.0217 1.7474q0.57522-0.95508 1.6063-1.4869 1.0419-0.54266 2.1923-0.54266 2.1055 0 3.104 1.2807 0.99849 1.2698 0.99849 3.8637v6.2731h-1.997v-6.2623q0-1.8125-0.54265-2.6699-0.54266-0.8574-1.9102-0.8574-1.259 0-2.29 0.8574-1.031 0.84654-1.1179 1.9536v6.9786z"/>
<path d="m332.42 33.445h6.3925q-0.10853-1.5303-0.88996-2.3551-0.78142-0.82484-2.0838-0.82484-1.3675 0-2.29 0.84654-0.91166 0.84654-1.1287 2.3334zm3.6684 6.8917q-2.659 0-4.2219-1.5737-1.5628-1.5846-1.5628-4.2002 0-2.5722 1.4977-4.2219 1.5086-1.6605 3.9831-1.6605 1.5628 0 2.6699 0.72716 1.1179 0.72716 1.6497 1.9753 0.54266 1.2481 0.54266 2.8978 0 0.20621-0.0326 0.5318h-8.2484q0.0326 1.8667 1.0745 2.8869 1.0419 1.0093 2.7567 1.0093 1.997 0 3.5381-1.2373l0.59693 1.476q-1.7908 1.3892-4.2436 1.3892z"/>
</g>
</svg>
